<?xml version="1.0" encoding="UTF-8" standalone="no"?>
<svg
   xmlns:dc="http://purl.org/dc/elements/1.1/"
   xmlns:cc="http://creativecommons.org/ns#"
   xmlns:rdf="http://www.w3.org/1999/02/22-rdf-syntax-ns#"
   xmlns:svg="http://www.w3.org/2000/svg"
   xmlns="http://www.w3.org/2000/svg"
   xmlns:sodipodi="http://sodipodi.sourceforge.net/DTD/sodipodi-0.dtd"
   xmlns:inkscape="http://www.inkscape.org/namespaces/inkscape"
   version="1.1"
   id="Layer_1"
   x="0px"
   y="0px"
   width="67.059998"
   height="65.24147"
   viewBox="5 -10 67.059998 88.075985"
   enable-background="new 0 0 100 100"
   xml:space="preserve"
   inkscape:version="0.48.5 r10040"
   sodipodi:docname="noun_28998_cc.svg"><metadata
     id="metadata17"><rdf:RDF><cc:Work
         rdf:about=""><dc:format>image/svg+xml</dc:format><dc:type
           rdf:resource="http://purl.org/dc/dcmitype/StillImage" /></cc:Work></rdf:RDF></metadata><defs
     id="defs15" /><sodipodi:namedview
     pagecolor="#ffffff"
     bordercolor="#666666"
     borderopacity="1"
     objecttolerance="10"
     gridtolerance="10"
     guidetolerance="10"
     inkscape:pageopacity="0"
     inkscape:pageshadow="2"
     inkscape:window-width="640"
     inkscape:window-height="480"
     id="namedview13"
     showgrid="false"
     fit-margin-top="0"
     fit-margin-left="0"
     fit-margin-right="0"
     fit-margin-bottom="0"
     inkscape:zoom="2.36"
     inkscape:cx="41.132963"
     inkscape:cy="27.047696"
     inkscape:window-x="0"
     inkscape:window-y="0"
     inkscape:window-maximized="0"
     inkscape:current-layer="Layer_1" /><g
     id="g3"
     transform="translate(-11.970499,-15.938405)"><g
       id="g5"><path
         d="m 93.363,33.345 -0.402,-6.728 c 0,0 -2.126,-3.372 -2.402,-4.353 -0.277,-0.982 4.186,-5.018 4.006,-6.333 -0.18,-1.313 0.246,-6.765 -2.805,-8.706 0,0 -1.218,-0.814 -3.604,5.937 0,0 -0.59,2.503 -2.003,3.166 -1.414,0.663 -0.916,-0.844 -0.802,-1.979 0.115,-1.136 0.022,-2.415 -0.401,-3.166 -0.422,-0.752 -2.024,-4.596 -3.204,-5.145 -1.179,-0.549 -1.809,1.283 -2.403,2.77 -0.594,1.488 -1.6,3.822 -1.603,5.541 -0.002,1.719 0.348,1.723 0.401,2.771 0.054,1.047 -0.604,1.866 -4.808,3.166 -4.203,1.299 -3.05,-0.621 -16.022,10.685 0,0 -1.041,1.426 -8.012,0.792 C 42.328,31.129 30.64,24.849 25.264,25.034 19.887,25.22 10.842,28.52 10.842,38.49 c 0,9.97 2.003,10.639 2.003,13.853 0,3.211 -2.403,5.937 -2.403,5.937 l -2.804,3.165 c 0,0 -2.403,0.491 -2.403,2.375 0,1.883 0.5,5.937 2.003,5.937 0,0 0.822,-1.051 0.4,-2.375 -0.422,-1.325 0.985,-0.021 1.603,-2.374 0.617,-2.354 0,-2.376 0,-2.376 l 4.006,-4.748 c 0,0 2.272,-0.148 1.202,4.748 -1.071,4.899 -2.926,8.66 -2.805,10.291 0.122,1.632 1.106,3.233 1.603,3.958 0.497,0.723 0.4,9.894 0.4,9.894 0,0 3.213,6.878 5.608,7.123 2.396,0.246 11.782,0.639 5.208,-5.144 -6.575,-5.784 -2.403,-2.376 -2.403,-2.376 0,0 0.842,-4.574 -1.603,-6.332 l 0.401,-10.289 2.804,-6.729 c 0,0 2.109,-2.208 1.602,0.396 -0.507,2.604 -1.665,1.652 -1.201,5.936 l 6.409,6.333 v 4.748 c 0,0 1.867,2.085 3.205,3.959 1.338,1.873 3.605,5.145 3.605,5.145 0,0 1.131,1.735 5.208,1.188 4.078,-0.548 3.205,-2.771 3.205,-2.771 0,0 -2.284,-3.827 -3.605,-5.145 -1.321,-1.319 -4.807,-6.332 -4.807,-6.332 0,0 -1.127,-3.874 -1.603,-4.354 -0.475,-0.479 0,-2.771 0,-2.771 0,0 3.659,-7.086 4.407,-8.311 0.748,-1.225 3.875,1.45 16.022,1.582 0,0 3.427,1.723 4.006,7.521 0.581,5.799 0.401,5.937 0.401,5.937 0,0 -0.827,3.222 -1.603,4.352 -0.775,1.132 -3.604,3.167 -3.604,3.167 l 6.409,7.52 2.003,-1.583 h 0.801 l 0.4,3.165 h 9.214 c 0,0 1.307,-0.804 0.801,-1.582 -0.507,-0.778 -2.665,-5.95 -4.407,-6.332 0,0 0.066,-1.383 -0.399,-1.583 -0.465,-0.2 1.511,-2.065 -1.602,-6.728 l 0.399,-9.104 c 0,0 3.413,-11.847 3.604,-14.643 0.193,-2.797 3.325,-7.525 7.612,-11.082 h 0.802 c 0,0 2.393,4.809 8.411,5.146 4.496,0.267 6.409,-1.932 6.409,-4.354 0,-5.179 -2.403,-9.103 -2.403,-9.103 z m -66.774,9.931 1.912,6.267 -5.533,-3.706 -5.533,3.706 1.911,-6.267 -5.331,-3.976 6.714,-0.167 2.239,-6.164 2.238,6.164 6.714,0.167 -5.331,3.976 z m 22.23,6.266 -5.533,-3.706 -5.533,3.706 1.912,-6.267 -5.332,-3.975 6.715,-0.167 2.238,-6.164 2.238,6.164 6.715,0.167 -5.332,3.976 1.912,6.266 z m 18.757,-6.266 1.912,6.267 -5.534,-3.706 -5.532,3.706 1.912,-6.267 -5.331,-3.976 6.714,-0.167 2.237,-6.164 2.239,6.164 6.715,0.167 -5.332,3.976 z"
         id="path7"
         inkscape:connector-curvature="0" /></g></g></svg>