<?xml version="1.0" encoding="UTF-8" standalone="no"?>
<svg
   xmlns:dc="http://purl.org/dc/elements/1.1/"
   xmlns:cc="http://creativecommons.org/ns#"
   xmlns:rdf="http://www.w3.org/1999/02/22-rdf-syntax-ns#"
   xmlns:svg="http://www.w3.org/2000/svg"
   xmlns="http://www.w3.org/2000/svg"
   xmlns:sodipodi="http://sodipodi.sourceforge.net/DTD/sodipodi-0.dtd"
   xmlns:inkscape="http://www.inkscape.org/namespaces/inkscape"
   version="1.1"
   id="Layer_1"
   x="0px"
   y="0px"
   width="65.96917"
   height="58.31852"
   viewBox="5 -10 65.96917 78.730001"
   enable-background="new 0 0 100 100"
   xml:space="preserve"
   inkscape:version="0.48.5 r10040"
   sodipodi:docname="republican.svg"><metadata
     id="metadata17"><rdf:RDF><cc:Work
         rdf:about=""><dc:format>image/svg+xml</dc:format><dc:type
           rdf:resource="http://purl.org/dc/dcmitype/StillImage" /></cc:Work></rdf:RDF></metadata><defs
     id="defs15" /><sodipodi:namedview
     pagecolor="#ffffff"
     bordercolor="#666666"
     borderopacity="1"
     objecttolerance="10"
     gridtolerance="10"
     guidetolerance="10"
     inkscape:pageopacity="0"
     inkscape:pageshadow="2"
     inkscape:window-width="640"
     inkscape:window-height="480"
     id="namedview13"
     showgrid="false"
     fit-margin-top="0"
     fit-margin-left="0"
     fit-margin-right="0"
     fit-margin-bottom="0"
     inkscape:zoom="2.36"
     inkscape:cx="37.05361"
     inkscape:cy="23.974815"
     inkscape:window-x="0"
     inkscape:window-y="0"
     inkscape:window-maximized="0"
     inkscape:current-layer="Layer_1" /><g
     id="g3"
     transform="translate(-17.477626,-21.136)"><g
       id="g5"><path
         d="M 94.036,88.891 93.989,36.254 c 0,0 2.904,-25.118 -38.24,-25.118 -41.144,0 -37.875,24.614 -37.875,24.614 l 0.006,42.868 c 0,0 -0.184,2.623 -2.228,2.623 -2.043,0 -2.724,-2.19 -2.724,-2.19 V 73.147 H 5.016 c 0,0 -1.31,16.719 11.378,16.719 13.994,0 12.36,-16.719 12.36,-16.719 0,0 0.429,-5.904 4.945,-5.904 V 88.892 H 51.503 V 73.146 h 24.729 v 15.745 h 17.804 z m -53.803,-39.982 -5.011,-3.523 -5.05,3.466 1.771,-5.898 -4.826,-3.778 6.106,-0.122 2.067,-5.8 2.002,5.822 6.104,0.192 -4.868,3.722 1.705,5.919 z m 18.842,0.024 -4.993,-3.548 -5.067,3.441 1.799,-5.89 -4.807,-3.801 6.106,-0.093 2.095,-5.79 1.976,5.833 6.102,0.223 -4.886,3.697 1.675,5.928 z m 13.607,-3.548 -5.041,3.478 1.757,-5.903 -4.834,-3.766 6.105,-0.136 2.054,-5.805 2.016,5.818 6.104,0.178 -4.859,3.733 1.719,5.915 -5.021,-3.512 z"
         id="path7"
         inkscape:connector-curvature="0" /></g></g></svg>